<?xml version="1.0" encoding="utf-8"?>
<!-- Generator: Adobe Illustrator 25.0.1, SVG Export Plug-In . SVG Version: 6.00 Build 0)  -->
<svg version="1.1" id="圖層_1" xmlns="http://www.w3.org/2000/svg" xmlns:xlink="http://www.w3.org/1999/xlink" x="0px" y="0px"
	 viewBox="0 0 824 1080" style="enable-background:new 0 0 824 1080;" xml:space="preserve">
<style type="text/css">
	.st0{fill:#4F4F4F;}
	.st1{fill:none;stroke:#000000;stroke-miterlimit:10;}
</style>
<g>
	<g>
		<g>
			<g>
				<path class="st0" d="M325.53,208.58l-48.57,0.01l0-1.7c4.39-0.39,7.44-1.13,9.17-2.22c3.06-1.92,4.59-4.59,4.59-7.98
					c0-2.02-0.69-4.73-2.07-8.13l-1.26-3.11l-7.1-17.44l-32.53,0.01l-3.84,10.2l-1.85,4.59c-2.22,5.42-3.33,9.68-3.33,12.79
					c0,1.83,0.41,3.53,1.22,5.1c0.81,1.58,1.91,2.86,3.29,3.84c1.92,1.33,4.39,2.12,7.39,2.36l0,1.7l-33.12,0.01l0-1.7
					c2.61-0.15,4.9-0.79,6.87-1.92c1.97-1.14,3.89-2.96,5.77-5.47c1.58-2.02,3.11-4.62,4.62-7.8c1.5-3.18,3.49-7.95,5.95-14.31
					l27.04-69.72l4.21,0l32.18,77.69c2.42,5.87,4.34,10.05,5.77,12.57c1.43,2.51,2.98,4.41,4.66,5.69c1.18,0.89,2.54,1.57,4.07,2.04
					c1.53,0.46,3.82,0.87,6.87,1.21L325.53,208.58z M279.09,164.97l-15.53-38.29l-14.63,38.3L279.09,164.97z"/>
			</g>
			<g>
				<path class="st0" d="M342.45,191.94c2.46,0,4.57,0.88,6.32,2.63c1.75,1.75,2.63,3.88,2.63,6.39c0,2.47-0.88,4.57-2.63,6.32
					c-1.75,1.75-3.85,2.62-6.32,2.62c-2.46,0-4.57-0.87-6.32-2.62c-1.75-1.75-2.63-3.85-2.63-6.32c0-2.51,0.87-4.65,2.62-6.39
					C337.88,192.82,339.99,191.94,342.45,191.94z"/>
			</g>
			<g>
				<path class="st0" d="M366.31,107.66l79.18-0.02l0,1.7l-63.93,96.94l23.66-0.01c13.8,0,23.85-1.98,30.16-5.92
					c5.08-3.11,9.14-7.86,12.2-14.27c1.28-2.71,2.24-5.84,2.88-9.39l1.7,0.07l-2.28,31.79l-87.46,0.02l0-1.7l64.52-96.94l-21.14,0
					c-7.64,0-13.67,0.56-18.07,1.67c-4.41,1.11-8.37,3.05-11.87,5.81c-2.86,2.27-5.04,4.77-6.54,7.51c-1.51,2.73-2.5,6.03-2.99,9.87
					l-1.7-0.15L366.31,107.66z"/>
			</g>
			<g>
				<path class="st0" d="M472.2,191.91c2.46,0,4.57,0.88,6.32,2.63c1.75,1.75,2.63,3.88,2.63,6.39c0,2.47-0.87,4.57-2.63,6.32
					c-1.75,1.75-3.85,2.62-6.32,2.62c-2.47,0-4.57-0.87-6.32-2.62c-1.75-1.75-2.62-3.85-2.62-6.32c0-2.51,0.87-4.65,2.62-6.39
					C467.63,192.79,469.74,191.91,472.2,191.91z"/>
			</g>
			<g>
				<path class="st0" d="M497.78,158.75c0-8.28,1.77-15.97,5.32-23.05c3.55-7.08,8.72-13.26,15.52-18.54
					c5.07-3.9,10.54-6.89,16.41-8.99c5.86-2.1,11.78-3.15,17.74-3.15c7.59,0,14.93,1.66,22.03,4.99c7.1,3.33,13.31,8.02,18.63,14.09
					c8.68,9.86,13.02,21.08,13.02,33.66c0,6.31-1.13,12.41-3.4,18.27c-2.27,5.87-5.57,11.22-9.9,16.06
					c-5.32,6.02-11.62,10.68-18.89,13.99c-7.27,3.31-14.87,4.96-22.81,4.96c-7.83,0-15.33-1.6-22.47-4.8
					c-7.15-3.2-13.31-7.74-18.49-13.61c-4.09-4.59-7.24-9.8-9.43-15.65C498.87,171.14,497.78,165.06,497.78,158.75z M515.66,159.86
					c0,14.31,3.9,26.36,11.69,36.18c3.5,4.39,7.21,7.58,11.13,9.58c3.92,2,8.44,2.99,13.57,2.99c5.18,0,9.72-0.98,13.64-2.96
					c3.92-1.98,7.65-5.18,11.2-9.62c7.78-9.87,11.68-22.02,11.67-36.48c0-7.94-1.08-15.45-3.22-22.53
					c-2.15-7.08-5.17-13.08-9.06-18.01c-3.16-4.04-6.67-6.99-10.54-8.84c-3.87-1.85-8.44-2.77-13.72-2.77
					c-5.22,0-9.75,0.92-13.57,2.74c-3.82,1.83-7.35,4.78-10.6,8.88c-3.89,4.89-6.9,10.88-9.02,17.98
					C516.72,144.1,515.66,151.72,515.66,159.86z"/>
			</g>
		</g>
		<g>
			<g>
				<g>
					<path class="st0" d="M356.34,254.61l-5.41,0.01c-20.51,0.08-41.02,0.05-61.52,0.24l-61.52,0.46
						c-20.51,0.27-41.02,0.43-61.53,0.79c20.51,0.35,41.02,0.5,61.53,0.76l61.52,0.43c20.51,0.19,41.02,0.14,61.52,0.21l5.41,0.01
						L356.34,254.61z"/>
				</g>
				<g>
					<path class="st0" d="M597.03,255.23l-61.52-0.43l-66.93-0.18l0,2.84l66.93-0.21l61.52-0.46c20.51-0.27,41.02-0.43,61.52-0.79
						C638.05,255.64,617.54,255.49,597.03,255.23z"/>
				</g>
			</g>
			<g>
				<path class="st0" d="M385.78,272.06l-26.59-15.99l26.59-16.01l26.6,16L385.78,272.06z M363.53,256.07l22.26,13.39l22.25-13.4
					l-22.26-13.39L363.53,256.07z"/>
			</g>
			<g>
				<path class="st0" d="M412.69,278.49l-37.28-22.43l37.27-22.45l37.29,22.43L412.69,278.49z M379.74,256.06l32.95,19.82
					l32.94-19.83l-32.95-19.82L379.74,256.06z"/>
			</g>
			<g>
				<path class="st0" d="M439.15,272.05l-26.59-15.99l26.59-16.01l26.59,16L439.15,272.05z M416.89,256.05l22.26,13.39l22.25-13.4
					l-22.26-13.39L416.89,256.05z"/>
			</g>
			<g>
				<path class="st0" d="M642.7,266.05l-18.96-10.04l18.96-10.05l37.52,10.04L642.7,266.05z M627.92,256l15.02,7.95l29.71-7.96
					l-29.71-7.95L627.92,256z"/>
			</g>
			<g>
				<path class="st0" d="M675.1,266.04L656.14,256l18.96-10.05l37.52,10.04L675.1,266.04z M660.32,256l15.02,7.95l29.71-7.96
					l-29.71-7.95L660.32,256z"/>
			</g>
			<g>
				<path class="st0" d="M707.51,266.03l-18.96-10.04l18.96-10.05l37.52,10.04L707.51,266.03z M692.73,255.99l15.02,7.95l29.71-7.96
					l-29.71-7.95L692.73,255.99z"/>
			</g>
			<g>
				<path class="st0" d="M181.31,266.16l-37.52-10.04l37.51-10.06l18.97,10.05L181.31,266.16z M151.36,256.12l29.71,7.95l15.01-7.96
					l-15.02-7.96L151.36,256.12z"/>
			</g>
			<g>
				<path class="st0" d="M148.9,266.16l-37.52-10.04l37.52-10.06l18.96,10.05L148.9,266.16z M118.95,256.12l29.71,7.95l15.01-7.96
					l-15.02-7.96L118.95,256.12z"/>
			</g>
			<g>
				<path class="st0" d="M116.49,266.17l-37.52-10.04l37.52-10.06l18.96,10.05L116.49,266.17z M86.54,256.13l29.71,7.95l15.01-7.96
					l-15.02-7.96L86.54,256.13z"/>
			</g>
		</g>
		<g>
			<g>
				<path class="st0" d="M221.11,318.64c-1.12,0-2.1-0.12-2.94-0.35c-0.84-0.24-1.54-0.58-2.11-1.02c-0.57-0.44-1.01-0.97-1.31-1.59
					c-0.3-0.62-0.48-1.32-0.53-2.1l1.2,0c0.12,0.75,0.35,1.37,0.68,1.86c0.33,0.5,0.75,0.89,1.23,1.18c0.49,0.29,1.05,0.5,1.68,0.62
					c0.63,0.12,1.29,0.18,2,0.18c0.74,0,1.4-0.08,1.99-0.23c0.59-0.16,1.1-0.38,1.52-0.68c0.42-0.3,0.74-0.66,0.96-1.08
					c0.22-0.42,0.33-0.89,0.33-1.42c0-0.55-0.1-1.02-0.29-1.4c-0.19-0.38-0.52-0.71-0.97-0.99c-0.45-0.28-1.05-0.54-1.8-0.76
					c-0.74-0.22-1.67-0.45-2.77-0.68c-0.91-0.2-1.69-0.43-2.34-0.7c-0.65-0.26-1.19-0.57-1.61-0.92c-0.42-0.35-0.74-0.75-0.94-1.2
					c-0.2-0.45-0.3-0.97-0.3-1.57c0-0.65,0.14-1.24,0.41-1.77c0.27-0.54,0.66-0.99,1.16-1.38c0.5-0.38,1.1-0.68,1.8-0.9
					c0.7-0.21,1.48-0.32,2.33-0.32c0.85,0,1.63,0.1,2.33,0.29c0.71,0.2,1.33,0.48,1.86,0.86c0.53,0.37,0.96,0.83,1.29,1.36
					c0.33,0.54,0.54,1.14,0.63,1.82l-1.17,0c-0.11-0.44-0.29-0.86-0.55-1.24c-0.25-0.38-0.58-0.72-0.98-0.99
					c-0.4-0.28-0.87-0.49-1.42-0.65c-0.55-0.16-1.18-0.23-1.89-0.23c-1.48,0-2.61,0.27-3.37,0.82c-0.76,0.55-1.14,1.3-1.14,2.24
					c0,0.44,0.07,0.81,0.21,1.14c0.14,0.32,0.38,0.61,0.72,0.87c0.34,0.26,0.78,0.48,1.34,0.68c0.56,0.2,1.25,0.38,2.08,0.55
					c0.49,0.1,0.99,0.21,1.5,0.32c0.52,0.11,1.02,0.24,1.51,0.39c0.49,0.15,0.96,0.34,1.4,0.56c0.44,0.22,0.83,0.49,1.16,0.82
					c0.33,0.33,0.59,0.71,0.79,1.16c0.2,0.45,0.3,0.98,0.3,1.6c0,0.71-0.15,1.36-0.45,1.95c-0.3,0.59-0.71,1.1-1.24,1.53
					c-0.53,0.43-1.16,0.76-1.89,1C222.76,318.52,221.96,318.64,221.11,318.64z"/>
			</g>
			<g>
				<path class="st0" d="M304.01,302.94l-5.8,0l0,15.38l-1.21,0l0-15.38l-5.74,0l0-1.21l12.76,0L304.01,302.94z"/>
			</g>
			<g>
				<path class="st0" d="M375.2,318.61c-0.99,0-1.84-0.1-2.54-0.31c-0.7-0.21-1.29-0.49-1.75-0.84c-0.47-0.35-0.83-0.77-1.11-1.24
					c-0.27-0.47-0.48-0.98-0.62-1.52c-0.14-0.54-0.23-1.09-0.27-1.67c-0.04-0.58-0.05-1.14-0.06-1.68l0-9.64l1.21,0l0,9.59
					c0,1.26,0.12,2.29,0.34,3.08c0.23,0.79,0.56,1.41,1,1.86c0.44,0.44,0.98,0.75,1.61,0.91c0.63,0.16,1.36,0.24,2.18,0.24
					c0.83,0,1.56-0.08,2.2-0.24c0.64-0.16,1.18-0.47,1.61-0.92c0.43-0.45,0.75-1.07,0.98-1.86c0.22-0.79,0.33-1.81,0.33-3.08l0-9.59
					l1.21,0l0,9.64c0,1.14-0.09,2.16-0.29,3.06c-0.19,0.9-0.53,1.66-1,2.28c-0.47,0.62-1.12,1.1-1.94,1.43
					C377.48,318.44,376.45,318.61,375.2,318.61z"/>
			</g>
			<g>
				<path class="st0" d="M461.11,309.86c0,5.62-2.79,8.43-8.38,8.43l-5.02,0l0-16.58l5.02,0c2.8,0,4.89,0.67,6.29,2.02
					C460.41,305.08,461.11,307.12,461.11,309.86z M459.82,309.86c0-1.09-0.11-2.07-0.33-2.93c-0.22-0.86-0.6-1.59-1.14-2.19
					c-0.55-0.6-1.28-1.06-2.19-1.37c-0.91-0.31-2.07-0.47-3.46-0.47l-3.77,0l0,14.17l3.77,0c1.38,0,2.53-0.16,3.45-0.49
					c0.91-0.32,1.64-0.8,2.19-1.42c0.55-0.62,0.93-1.38,1.15-2.27C459.71,312.02,459.82,311,459.82,309.86z"/>
			</g>
			<g>
				<path class="st0" d="M528.33,318.27l-1.21,0l0-16.59l1.21,0L528.33,318.27z"/>
			</g>
			<g>
				<path class="st0" d="M602.03,301.35c1.13,0,2.18,0.2,3.14,0.61c0.96,0.4,1.78,0.98,2.48,1.73c0.69,0.75,1.23,1.65,1.62,2.7
					c0.39,1.05,0.58,2.22,0.58,3.52c0,1.28-0.19,2.45-0.58,3.52c-0.38,1.06-0.92,1.97-1.61,2.73c-0.69,0.76-1.52,1.35-2.47,1.77
					c-0.96,0.42-2.01,0.63-3.16,0.63c-1.15,0-2.21-0.21-3.17-0.63c-0.96-0.42-1.79-1.01-2.48-1.77c-0.69-0.76-1.23-1.67-1.62-2.73
					c-0.38-1.06-0.57-2.24-0.57-3.53c0-1.31,0.19-2.48,0.58-3.53c0.39-1.05,0.93-1.95,1.63-2.69c0.7-0.74,1.52-1.32,2.48-1.72
					C599.84,301.56,600.89,301.35,602.03,301.35z M602.02,317.34c0.95,0,1.82-0.16,2.63-0.49c0.8-0.33,1.5-0.81,2.08-1.45
					c0.59-0.64,1.04-1.42,1.36-2.34c0.32-0.92,0.48-1.98,0.48-3.16c0-1.19-0.16-2.24-0.49-3.15c-0.33-0.91-0.78-1.68-1.36-2.3
					c-0.58-0.62-1.27-1.09-2.06-1.41c-0.79-0.32-1.66-0.48-2.6-0.48c-0.96,0-1.84,0.16-2.64,0.49c-0.8,0.32-1.5,0.79-2.08,1.42
					c-0.59,0.62-1.04,1.39-1.37,2.3c-0.33,0.91-0.49,1.95-0.49,3.14c0,1.18,0.16,2.23,0.49,3.16c0.32,0.93,0.77,1.71,1.36,2.34
					c0.58,0.64,1.27,1.12,2.08,1.45C600.19,317.18,601.07,317.34,602.02,317.34z"/>
			</g>
		</g>
	</g>
	<g>
		<path class="st0" d="M427.1,426.02c-2.85,0-5.75,0.06-8.6,0.17l0.06,1.48l-0.4-0.15l-2.46,6.39h-17.73
			c-28.41,4.35-56.93,14.55-80.25,29.32h86.68l-15.07,39.09H273.05c-8.25,9.51-15.94,19.79-22.34,30.71h126.77l-15.61,40.48h-129.3
			c-3.05,9.49-5.34,19.28-6.98,29.32h124.98l-15.61,40.48H222.79c0.38,10.46,2.28,20.71,4.19,30.71h96.13l-15.07,39.09h-69.89
			c4.62,11.24,10.29,21.98,16.75,32.11h40.75l-14.76,38.27l0.63,0.24l-1.81,1.85c39.57,38.79,91.91,60.15,147.38,60.15
			c115.96,0,210.31-94.14,210.31-209.85S543.06,426.02,427.1,426.02z M427.1,840.15c-52.66,0-102.41-19.78-140.56-55.77
			l44.71-115.94h196.57v-6.98H333.94l88.61-229.8c1.52-0.03,3.04-0.05,4.55-0.05c112.88,0,204.72,91.63,204.72,204.27
			S539.98,840.15,427.1,840.15z"/>
		<ellipse class="st1" cx="426.83" cy="635.74" rx="210.8" ry="209.51"/>
		<ellipse class="st1" cx="427.07" cy="635.74" rx="204.06" ry="203.82"/>
		<line class="st1" x1="214.64" y1="970.78" x2="461.73" y2="330.02"/>
		<line class="st1" x1="207.66" y1="974.97" x2="440.79" y2="367.71"/>
		<line class="st1" x1="264.89" y1="660.87" x2="740.25" y2="660.87"/>
		<line class="st1" x1="273.36" y1="667.85" x2="696.1" y2="667.85"/>
		<line class="st1" x1="190.71" y1="462.64" x2="458.24" y2="462.64"/>
		<line class="st1" x1="178.96" y1="503.12" x2="446.49" y2="503.12"/>
		<line class="st1" x1="176.69" y1="532.44" x2="444.22" y2="532.44"/>
		<line class="st1" x1="157.55" y1="572.92" x2="421.94" y2="572.92"/>
		<line class="st1" x1="155.31" y1="602.24" x2="419.7" y2="602.24"/>
		<line class="st1" x1="144.84" y1="642.72" x2="392.63" y2="644.12"/>
		<line class="st1" x1="162.29" y1="673.44" x2="390.69" y2="673.44"/>
		<line class="st1" x1="169.17" y1="713.92" x2="354.94" y2="713.92"/>
		<line class="st1" x1="140.65" y1="744.63" x2="353.36" y2="744.63"/>
		<line class="st1" x1="204.67" y1="433.32" x2="472.2" y2="433.32"/>
		<line class="st1" x1="364.47" y1="300.97" x2="642.84" y2="928.78"/>
	</g>
</g>
</svg>
