<?xml version="1.0" encoding="utf-8"?>
<!-- Generator: Adobe Illustrator 25.0.1, SVG Export Plug-In . SVG Version: 6.00 Build 0)  -->
<svg version="1.1" id="圖層_1" xmlns="http://www.w3.org/2000/svg" xmlns:xlink="http://www.w3.org/1999/xlink" x="0px" y="0px"
	 viewBox="0 0 638 440" style="enable-background:new 0 0 638 440;" xml:space="preserve">
<polygon points="110,162.1 639,15.8 639,12.7 106,160.1 "/>
<polygon points="101.6,161.3 -1,189.7 -1,192.8 105.7,163.3 "/>
<polygon points="438.8,324.9 434,325.8 639,427.3 639,424 "/>
<polygon points="110,162.1 105.7,163.3 429.6,323.7 434.4,322.7 "/>
<polygon points="106,160.1 -1,107.2 -1,110.5 101.6,161.3 "/>
<polygon points="106,160.1 101.6,161.3 105.7,163.3 110,162.1 "/>
<polygon points="438.8,324.9 639,284.6 639,281.6 434.4,322.7 "/>
<polygon points="429.6,323.7 -1,410.2 -1,413.3 434,325.8 "/>
<polygon points="429.6,323.7 434,325.8 438.8,324.9 434.4,322.7 "/>
</svg>
