<?xml version="1.0" encoding="utf-8"?>
<!-- Generator: Adobe Illustrator 25.0.1, SVG Export Plug-In . SVG Version: 6.00 Build 0)  -->
<svg version="1.1" id="圖層_1" xmlns="http://www.w3.org/2000/svg" xmlns:xlink="http://www.w3.org/1999/xlink" x="0px" y="0px"
	 viewBox="0 0 563.4 443.4" style="enable-background:new 0 0 563.4 443.4;" xml:space="preserve">
<style type="text/css">
	.st0{display:none;}
	.st1{display:inline;fill:#F7C3C3;}
	.st2{fill:#FFFFFF;}
</style>
<g id="圖層_2_1_" class="st0">
	<circle class="st1" cx="-412" cy="144.9" r="144"/>
	<circle class="st1" cx="753.2" cy="319.2" r="149.1"/>
</g>
<g id="圖層_1_1_">
	<g>
		<g>
			<g>
				
					<rect x="89.1" y="199.2" transform="matrix(0.3548 -0.9349 0.9349 0.3548 -43.3848 340.0766)" class="st2" width="271.1" height="4.5"/>
			</g>
		</g>
		<g>
			<path class="st2" d="M277.9,72.4c-2.4,0-4.8,0.1-7.1,0.2l-1.7,4.6c2.9-0.2,5.9-0.3,8.9-0.3c79.8,0,144.8,64.9,144.8,144.8
				s-65,144.8-144.8,144.8c-37.3,0-72.8-14.2-99.8-39.9c-0.9-0.9-1.8-1.8-2.7-2.7l-1.7,4.6c0.5,0.5,0.9,0.9,1.4,1.4
				c27.9,26.5,64.4,41.1,102.9,41.1c82.3,0,149.2-67,149.2-149.2C427.1,139.4,360.2,72.4,277.9,72.4z"/>
		</g>
		<g>
			<rect x="209" y="240.6" class="st2" width="135.9" height="4.5"/>
		</g>
		<g>
			<g>
				<path class="st2" d="M260.7,100.8l8.1-21.4h-38c-14,5.1-27.1,12.4-38.7,21.4H260.7z"/>
			</g>
			<g>
				<path class="st2" d="M250,128.9h-85.6c-5,6.7-9.5,13.9-13.3,21.4h90.7L250,128.9z"/>
			</g>
			<g>
				<path class="st2" d="M231.2,178.4h-90.7c-1.8,6.9-3.2,14.1-4,21.4h86.6L231.2,178.4z"/>
			</g>
			<g>
				<path class="st2" d="M212.4,227.9h-76.2c0.6,7.3,1.8,14.4,3.4,21.4h64.7L212.4,227.9z"/>
			</g>
			<g>
				<path class="st2" d="M149.5,277.3c3.6,7.5,7.8,14.6,12.6,21.4h23.4l8.1-21.4H149.5z"/>
			</g>
		</g>
	</g>
</g>
</svg>
