<?xml version="1.0" encoding="utf-8"?>
<!-- Generator: Adobe Illustrator 25.0.1, SVG Export Plug-In . SVG Version: 6.00 Build 0)  -->
<svg version="1.1" id="圖層_1" xmlns="http://www.w3.org/2000/svg" xmlns:xlink="http://www.w3.org/1999/xlink" x="0px" y="0px"
	 viewBox="0 0 408 316" style="enable-background:new 0 0 408 316;" xml:space="preserve">
<style type="text/css">
	.st0{fill:#B3D8DD;}
	.st1{fill:#4F4E4F;}
</style>
<g>
	<circle class="st0" cx="244.57" cy="158" r="144.71"/>
	<g>
		<g>
			<g>
				
					<rect x="-16.49" y="158.83" transform="matrix(0.3548 -0.935 0.935 0.3548 -95.313 182.8762)" class="st1" width="202.66" height="3.33"/>
			</g>
		</g>
		<g>
			<path class="st1" d="M124.61,64.03c-1.78,0-3.55,0.05-5.31,0.13l-1.3,3.42c2.19-0.13,4.39-0.22,6.61-0.22
				c59.68,0,108.23,48.55,108.23,108.23c0,59.68-48.55,108.23-108.23,108.23c-27.89,0-54.38-10.58-74.58-29.8
				c-0.69-0.66-1.35-1.35-2.02-2.02l-1.3,3.42c0.35,0.34,0.67,0.69,1.02,1.02c20.82,19.81,48.13,30.72,76.88,30.72
				c61.52,0,111.56-50.05,111.56-111.56C236.18,114.08,186.13,64.03,124.61,64.03z"/>
		</g>
		<g>
			<rect x="73.12" y="189.69" class="st1" width="101.58" height="3.33"/>
		</g>
		<g>
			<g>
				<path class="st1" d="M111.74,85.2l6.07-16H89.41c-10.5,3.84-20.22,9.28-28.92,16H111.74z"/>
			</g>
			<g>
				<path class="st1" d="M103.77,106.2H39.82c-3.75,5.02-7.08,10.37-9.93,16H97.7L103.77,106.2z"/>
			</g>
			<g>
				<path class="st1" d="M89.73,143.2H21.9c-1.37,5.19-2.38,10.53-2.96,16h64.72L89.73,143.2z"/>
			</g>
			<g>
				<path class="st1" d="M75.69,180.2H18.71c0.46,5.43,1.32,10.77,2.56,16h48.34L75.69,180.2z"/>
			</g>
			<g>
				<path class="st1" d="M28.65,217.2c2.65,5.58,5.82,10.92,9.43,16h17.49l6.07-16H28.65z"/>
			</g>
		</g>
	</g>
</g>
</svg>
